<?xml version="1.0" encoding="UTF-8"?>
<svg version="1.1" xmlns="http://www.w3.org/2000/svg" width="500" height="482">
<path d="M0 0 C18.81 0 37.62 0 57 0 C57 18.81 57 37.62 57 57 C38.19 57 19.38 57 0 57 C0 38.19 0 19.38 0 0 Z " fill="#0095A3" transform="translate(378,242)"/>
<path d="M0 0 C19.14 0 38.28 0 58 0 C58 18.81 58 37.62 58 57 C48.43 57 38.86 57 29 57 C29 47.43 29 37.86 29 28 C19.43 28 9.86 28 0 28 C0 18.76 0 9.52 0 0 Z " fill="#84B035" transform="translate(410,210)"/>
<path d="M0 0 C18.81 0 37.62 0 57 0 C57 18.81 57 37.62 57 57 C47.43 57 37.86 57 28 57 C28 47.76 28 38.52 28 29 C18.76 29 9.52 29 0 29 C0 19.43 0 9.86 0 0 Z " fill="#E26B00" transform="translate(443,177)"/>
<path d="M0 0 C7.23956035 5.06769225 9.29952606 10.73491964 10.875 19.3125 C10.875 24.9225 10.875 30.5325 10.875 36.3125 C-16.35 36.8075 -16.35 36.8075 -44.125 37.3125 C-42.52401277 51.70871891 -42.52401277 51.70871891 -34.3125 61.6875 C-23.5575428 67.17041936 -13.16520892 66.02999031 -1.97265625 62.48046875 C0.89721272 61.45145723 0.89721272 61.45145723 3.06640625 59.61328125 C3.66324219 59.18402344 4.26007813 58.75476563 4.875 58.3125 C7.875 59.3125 7.875 59.3125 9.875 62.3125 C9.875 63.3025 9.875 64.2925 9.875 65.3125 C-3.30643324 73.28150336 -16.24107966 75.44350699 -31.5 72.1875 C-39.88367426 69.77621686 -44.90996901 65.63752094 -49.1171875 58.046875 C-51.88467759 50.53818095 -52.48897395 42.88140142 -52.4375 34.9375 C-52.43186035 34.02137939 -52.4262207 33.10525879 -52.42041016 32.16137695 C-52.22949476 21.48051118 -50.90911003 12.1695291 -43.125 4.3125 C-32.7935432 -4.97393588 -12.24181301 -6.29578955 0 0 Z M-37.99609375 10.11328125 C-42.87322444 16.13659613 -44.125 21.56402178 -44.125 29.3125 C-28.285 29.3125 -12.445 29.3125 3.875 29.3125 C3.09466925 17.74185062 3.09466925 17.74185062 -2.4375 8.5 C-11.59171984 1.04889083 -29.44915846 1.88752516 -37.99609375 10.11328125 Z " fill="#000000" transform="translate(321.125,178.6875)"/>
<path d="M0 0 C9.3740625 -0.061875 9.3740625 -0.061875 18.9375 -0.125 C20.89163818 -0.14320801 22.84577637 -0.16141602 24.85913086 -0.18017578 C26.43603238 -0.18602582 28.01293695 -0.19112016 29.58984375 -0.1953125 C30.78389832 -0.2106604 30.78389832 -0.2106604 32.0020752 -0.22631836 C39.73115271 -0.22868091 47.27771884 0.53189235 53.5090332 5.46923828 C57.92205897 10.00005072 59.50428905 15.51468239 59.546875 21.7109375 C59.53140625 22.46632812 59.5159375 23.22171875 59.5 24 C59.51546875 24.75539062 59.5309375 25.51078125 59.546875 26.2890625 C59.504198 32.49856549 57.86718004 37.891368 53.58813477 42.53076172 C47.9444213 47.50344317 42.94604951 48.29437522 35.63671875 48.1953125 C34.84473587 48.1924826 34.05275299 48.18965271 33.23677063 48.18673706 C30.72019001 48.17558863 28.20397211 48.15049422 25.6875 48.125 C23.97591662 48.11496329 22.26432763 48.10583864 20.55273438 48.09765625 C16.36823918 48.07737271 12.18452312 48.03821482 8 48 C8 56.25 8 64.5 8 73 C5.36 73 2.72 73 0 73 C0 48.91 0 24.82 0 0 Z M8 8 C8 18.89 8 29.78 8 41 C12.970625 41.061875 17.94125 41.12375 23.0625 41.1875 C25.39453491 41.22846802 25.39453491 41.22846802 27.77368164 41.27026367 C29.01496826 41.27775635 30.25625488 41.28524902 31.53515625 41.29296875 C33.42826538 41.31653442 33.42826538 41.31653442 35.35961914 41.34057617 C40.40288028 40.8687534 44.18285379 39.32602561 48.3125 36.3125 C52.02535001 31.22452036 52.55649955 25.26674687 51.671875 19.1796875 C50.48356521 15.32458946 48.12671711 12.49722318 45 10 C40.76797917 7.87458509 37.2118324 7.7672364 32.51171875 7.8046875 C31.22483154 7.80968262 29.93794434 7.81467773 28.61206055 7.81982422 C26.98695557 7.83803223 25.36185059 7.85624023 23.6875 7.875 C18.510625 7.91625 13.33375 7.9575 8 8 Z " fill="#000000" transform="translate(203,177)"/>
<path d="M0 0 C2.31 0 4.62 0 7 0 C7.00808685 0.59166962 7.01617371 1.18333923 7.02450562 1.79293823 C7.11103917 7.99074598 7.21055972 14.18825167 7.31738281 20.38574219 C7.35549778 22.69395852 7.39038007 25.00223072 7.421875 27.31054688 C7.46790723 30.64212922 7.52583679 33.97333272 7.5859375 37.3046875 C7.59748871 38.32488983 7.60903992 39.34509216 7.62094116 40.39620972 C7.77075524 47.78721495 7.95346708 55.49165786 11.75 62 C17.42843329 67.04749626 25.75398508 66.9319623 33 67 C38.3975997 66.47482814 43.76933084 65.58965868 48 62 C52.01966265 56.19265983 51.47538954 49.95221362 51.51171875 43.1640625 C51.52966995 41.92957367 51.54762115 40.69508484 51.56611633 39.42318726 C51.62018431 35.49049263 51.65410502 31.55791917 51.6875 27.625 C51.71904465 24.95438118 51.75516579 22.28384861 51.79101562 19.61328125 C51.87590909 13.07562947 51.94427411 6.53796195 52 0 C54.64 0 57.28 0 60 0 C60.07642165 7.64967407 60.12875549 15.29924869 60.16479492 22.94921875 C60.17982831 25.54854003 60.20026046 28.14783617 60.22631836 30.74707031 C60.26294101 34.49550605 60.27978152 38.24360472 60.29296875 41.9921875 C60.30845261 43.14363251 60.32393646 44.29507751 60.33988953 45.48141479 C60.34155713 53.57967194 59.40507682 60.74486408 55.375 67.875 C46.70359821 75.63362265 35.03366982 75.54508175 24.01123047 75.13183594 C16.56121094 74.64348797 10.09948192 72.90260654 4.40234375 67.98828125 C-0.72589144 60.71732941 -0.40085865 53.08356821 -0.29296875 44.53125 C-0.28872391 43.25519897 -0.28447906 41.97914795 -0.28010559 40.66442871 C-0.26621934 37.29738106 -0.23933995 33.93096124 -0.20599365 30.56408691 C-0.17512035 27.11830017 -0.16156367 23.67244815 -0.14648438 20.2265625 C-0.11349903 13.48420374 -0.063362 6.74213806 0 0 Z " fill="#000000" transform="translate(43,177)"/>
<path d="M0 0 C4.44866593 3.75725773 6.37866392 7.42555338 8 13 C8.24050903 15.88546753 8.24050903 15.88546753 8.22705078 18.91357422 C8.22689972 20.05430389 8.22674866 21.19503357 8.22659302 22.37033081 C8.21627045 23.58616852 8.20594788 24.80200623 8.1953125 26.0546875 C8.1924826 27.31137238 8.18965271 28.56805725 8.18673706 29.86282349 C8.17746123 33.18700864 8.15952381 36.51091424 8.1373291 39.83502197 C8.11678812 43.23374021 8.10771778 46.63248744 8.09765625 50.03125 C8.07563379 56.68757667 8.04218433 63.34377221 8 70 C5.69 70 3.38 70 1 70 C0.97494385 68.69442139 0.9498877 67.38884277 0.92407227 66.04370117 C0.82921248 61.15510864 0.7291904 56.26663252 0.62768555 51.37817383 C0.58463143 49.27077984 0.54293854 47.16335755 0.50268555 45.0559082 C0.44425993 42.00984196 0.38078215 38.96391438 0.31640625 35.91796875 C0.29969376 34.99042282 0.28298126 34.06287689 0.26576233 33.10722351 C0.62741731 19.03048805 0.62741731 19.03048805 -5.75 7.3125 C-13.50559344 2.78840383 -23.11674885 2.93636137 -31.765625 4.5 C-36.57756366 5.90215431 -39.34072996 7.56788327 -42 12 C-43.01545766 15.04637299 -43.1541977 17.19777098 -43.20532227 20.3894043 C-43.22526749 21.49031906 -43.24521271 22.59123383 -43.26576233 23.72550964 C-43.28247482 24.91308365 -43.29918732 26.10065765 -43.31640625 27.32421875 C-43.33718735 28.54075638 -43.35796844 29.75729401 -43.37937927 31.01069641 C-43.44484717 34.90290596 -43.50374715 38.79518385 -43.5625 42.6875 C-43.60568782 45.32357482 -43.6493022 47.95964269 -43.69335938 50.59570312 C-43.80052578 57.06372951 -43.90229745 63.53182411 -44 70 C-46.64 70 -49.28 70 -52 70 C-52.05090835 62.47439478 -52.08582092 54.94883434 -52.10986328 47.4230957 C-52.11989132 44.86546163 -52.13351707 42.30783894 -52.15087891 39.75024414 C-52.17526779 36.06393618 -52.1865154 32.37778046 -52.1953125 28.69140625 C-52.20563507 27.55667374 -52.21595764 26.42194122 -52.22659302 25.25282288 C-52.2278385 16.34478214 -52.04801934 8.16817362 -45.64453125 1.4375 C-35.50917708 -7.42190697 -10.93641507 -7.0497496 0 0 Z " fill="#000000" transform="translate(165,180)"/>
<path d="M0 0 C0.639375 0.495 1.27875 0.99 1.9375 1.5 C2.576875 1.005 3.21625 0.51 3.875 0 C7.98963217 -2.01533004 11.43393471 -2.36272165 15.9375 -1.5 C19.5069752 0.436867 21.63154468 2.58213404 22.9375 6.5 C23.02041953 8.4920303 23.04488177 10.48673713 23.03515625 12.48046875 C23.03193359 13.64384766 23.02871094 14.80722656 23.02539062 16.00585938 C23.01282227 17.82827148 23.01282227 17.82827148 23 19.6875 C22.99548828 20.91404297 22.99097656 22.14058594 22.98632812 23.40429688 C22.97453065 26.43624668 22.95806921 29.46809906 22.9375 32.5 C20.6275 32.5 18.3175 32.5 15.9375 32.5 C15.907771 31.47845825 15.907771 31.47845825 15.87744141 30.4362793 C15.78223017 27.35296083 15.67253534 24.27032351 15.5625 21.1875 C15.5315625 20.11564453 15.500625 19.04378906 15.46875 17.93945312 C15.41074219 16.39741211 15.41074219 16.39741211 15.3515625 14.82421875 C15.3201416 13.87635498 15.2887207 12.92849121 15.25634766 11.9519043 C15.0885949 9.2469731 15.0885949 9.2469731 12.9375 6.5 C10.39542029 6.16656449 10.39542029 6.16656449 7.9375 6.5 C6.19243385 8.24506615 6.70467216 10.69039143 6.62109375 13.06640625 C6.57919922 14.19111328 6.53730469 15.31582031 6.49414062 16.47460938 C6.45482422 17.65861328 6.41550781 18.84261719 6.375 20.0625 C6.33181641 21.25037109 6.28863281 22.43824219 6.24414062 23.66210938 C6.13766454 26.60794784 6.03565159 29.5538743 5.9375 32.5 C3.2975 32.5 0.6575 32.5 -2.0625 32.5 C-2.5575 19.63 -2.5575 19.63 -3.0625 6.5 C-5.0425 6.5 -7.0225 6.5 -9.0625 6.5 C-11.66338622 9.10088622 -11.36212225 10.32137113 -11.4765625 13.9453125 C-11.51523438 15.02167969 -11.55390625 16.09804688 -11.59375 17.20703125 C-11.6246875 18.33496094 -11.655625 19.46289062 -11.6875 20.625 C-11.72617188 21.76066406 -11.76484375 22.89632813 -11.8046875 24.06640625 C-11.89917601 26.87743956 -11.98473541 29.68846233 -12.0625 32.5 C-14.3725 32.5 -16.6825 32.5 -19.0625 32.5 C-19.1497253 28.10429206 -19.20296869 23.70880729 -19.25 19.3125 C-19.27513672 18.06662109 -19.30027344 16.82074219 -19.32617188 15.53710938 C-19.33583984 14.33505859 -19.34550781 13.13300781 -19.35546875 11.89453125 C-19.3711792 10.78956299 -19.38688965 9.68459473 -19.40307617 8.54614258 C-19.01899379 5.1108767 -18.09402649 3.26755987 -16.0625 0.5 C-11.20826008 -2.7857943 -5.10940727 -2.50256683 0 0 Z " fill="#000000" transform="translate(204.0625,266.5)"/>
<path d="M0 0 C2.31 0 4.62 0 7 0 C7.06968359 9.24943028 7.12290413 18.4987694 7.15543652 27.74840546 C7.17105488 32.04395355 7.19222266 36.3393213 7.22631836 40.63476562 C7.25904913 44.7844875 7.27688179 48.93403651 7.28463173 53.08387756 C7.29015072 54.6626304 7.30092777 56.24137438 7.31719017 57.8200531 C7.49329848 75.6333769 7.49329848 75.6333769 1.75 82.8125 C-4.65000386 87.90341216 -11.34761495 89.15002621 -19.3125 89.0625 C-20.38113281 89.05347656 -21.44976563 89.04445313 -22.55078125 89.03515625 C-23.35902344 89.02355469 -24.16726562 89.01195312 -25 89 C-25 86.69 -25 84.38 -25 82 C-23.90300781 81.81824219 -22.80601563 81.63648438 -21.67578125 81.44921875 C-20.22126033 81.19585059 -18.7668383 80.94191427 -17.3125 80.6875 C-16.59126953 80.56955078 -15.87003906 80.45160156 -15.12695312 80.33007812 C-10.84542698 79.56761456 -7.58160303 78.62333733 -4 76 C-0.676199 71.18048855 -0.87046732 64.9119917 -0.79467773 59.26025391 C-0.77982834 58.29333618 -0.77982834 58.29333618 -0.76467896 57.30688477 C-0.7333366 55.19681346 -0.70841565 53.08671971 -0.68359375 50.9765625 C-0.6630006 49.50539599 -0.64200354 48.03423508 -0.62062073 46.56307983 C-0.56564368 42.70640626 -0.51612782 38.84968146 -0.46777344 34.99291992 C-0.41737955 31.05122361 -0.36178721 27.10960093 -0.30664062 23.16796875 C-0.19935747 15.445375 -0.09784731 7.72271968 0 0 Z " fill="#000000" transform="translate(25,177)"/>
<path d="M0 0 C0.83595703 0.00451172 1.67191406 0.00902344 2.53320312 0.01367188 C4.58466649 0.02539452 6.63609273 0.04332797 8.6875 0.0625 C8.6875 2.3725 8.6875 4.6825 8.6875 7.0625 C7.32818359 7.11857422 7.32818359 7.11857422 5.94140625 7.17578125 C-2.30663403 7.62091358 -9.61626335 8.17250822 -16.75 12.5625 C-21.1580989 19.61545825 -20.63265965 29.56299713 -20.7265625 37.63671875 C-20.74592865 38.68656448 -20.7652948 39.73641022 -20.7852478 40.81806946 C-20.84440828 44.12863369 -20.89117196 47.43923391 -20.9375 50.75 C-20.97573839 53.01238387 -21.0147934 55.27475409 -21.0546875 57.53710938 C-21.15005643 63.04545061 -21.23528416 68.55387596 -21.3125 74.0625 C-23.6225 74.0625 -25.9325 74.0625 -28.3125 74.0625 C-28.38883893 66.25209851 -28.44122116 58.44179399 -28.47729492 50.63110352 C-28.4906397 47.97630224 -28.51278011 45.32199147 -28.53881836 42.66723633 C-28.57538673 38.84189748 -28.59226928 35.01688858 -28.60546875 31.19140625 C-28.62869453 29.42368614 -28.62869453 29.42368614 -28.65238953 27.62025452 C-28.65400862 19.61396831 -28.15063566 12.59099298 -23 6.1875 C-15.66719066 0.38946471 -8.96540359 -0.09198915 0 0 Z " fill="#000000" transform="translate(369.3125,175.9375)"/>
<path d="M0 0 C3.33867037 3.08827009 4.36799868 5.64828985 4.72705078 10.17504883 C4.71657715 11.19622803 4.70610352 12.21740723 4.6953125 13.26953125 C4.68886719 14.38134766 4.68242187 15.49316406 4.67578125 16.63867188 C4.65902344 17.78916016 4.64226562 18.93964844 4.625 20.125 C4.61597656 21.29482422 4.60695313 22.46464844 4.59765625 23.66992188 C4.57413732 26.55099053 4.54126852 29.43163989 4.5 32.3125 C2.19 32.3125 -0.12 32.3125 -2.5 32.3125 C-2.5 29.0125 -2.5 25.7125 -2.5 22.3125 C-6.46 22.3125 -10.42 22.3125 -14.5 22.3125 C-14.5 25.6125 -14.5 28.9125 -14.5 32.3125 C-17.14 32.3125 -19.78 32.3125 -22.5 32.3125 C-22.58770383 28.45847871 -22.64062735 24.60471709 -22.6875 20.75 C-22.71263672 19.66396484 -22.73777344 18.57792969 -22.76367188 17.45898438 C-22.81991473 11.29101781 -22.62349331 6.70089604 -19.5 1.3125 C-13.71080158 -3.06469881 -6.36485756 -3.06877061 0 0 Z M-13.3125 6.375 C-15.10842137 9.30518751 -14.68977574 11.9597953 -14.5 15.3125 C-10.54 15.3125 -6.58 15.3125 -2.5 15.3125 C-2.603125 14.03375 -2.70625 12.755 -2.8125 11.4375 C-2.87050781 10.71820313 -2.92851562 9.99890625 -2.98828125 9.2578125 C-3.37393036 6.91730784 -3.37393036 6.91730784 -6.5 5.3125 C-9.29523674 4.96309541 -10.8648354 4.94016213 -13.3125 6.375 Z " fill="#000000" transform="translate(321.5,266.6875)"/>
<path d="M0 0 C2.31 0 4.62 0 7 0 C7 24.09 7 48.18 7 73 C4.69 73 2.38 73 0 73 C0 48.91 0 24.82 0 0 Z " fill="#000000" transform="translate(185,177)"/>
<path d="M0 0 C3.43803208 1.93389305 4.69276462 2.9601264 5.8125 6.75 C5.874375 7.4925 5.93625 8.235 6 9 C2.625 9.125 2.625 9.125 -1 9 C-1.66 8.34 -2.32 7.68 -3 7 C-5.58354218 6.83312552 -5.58354218 6.83312552 -8 7 C-7.67 7.66 -7.34 8.32 -7 9 C-5.01290485 9.57758155 -5.01290485 9.57758155 -2.6875 9.9375 C3.9656747 11.34653222 3.9656747 11.34653222 6 14 C6.86769518 20.83309958 6.86769518 20.83309958 4.1875 24.4375 C0.20757504 27.28030354 -3.22289602 27.32387146 -8 27 C-11.375 25.875 -11.375 25.875 -14 24 C-14.875 20.8125 -14.875 20.8125 -15 18 C-12.69 18 -10.38 18 -8 18 C-8 18.66 -8 19.32 -8 20 C-5.02934491 19.65772428 -5.02934491 19.65772428 -2 19 C-1.67 18.34 -1.34 17.68 -1 17 C-1.60328125 16.95101563 -2.2065625 16.90203125 -2.828125 16.8515625 C-3.62734375 16.77679688 -4.4265625 16.70203125 -5.25 16.625 C-6.03890625 16.55539062 -6.8278125 16.48578125 -7.640625 16.4140625 C-10.12085981 15.9787895 -11.85982375 15.31630309 -14 14 C-15.52846661 10.94306678 -15.23242445 8.37015453 -15 5 C-11.7724342 -0.84035716 -6.06116119 -0.76562036 0 0 Z " fill="#000000" transform="translate(261,273)"/>
<path d="M0 0 C5.61 0 11.22 0 17 0 C17 2.31 17 4.62 17 7 C15.68 7 14.36 7 13 7 C13 13.93 13 20.86 13 28 C14.32 28 15.64 28 17 28 C17 29.98 17 31.96 17 34 C11.39 34 5.78 34 0 34 C0 32.02 0 30.04 0 28 C1.65 28 3.3 28 5 28 C5 20.74 5 13.48 5 6 C3.35 6 1.7 6 0 6 C0 4.02 0 2.04 0 0 Z " fill="#000000" transform="translate(331,265)"/>
<path d="M0 0 C2.31 0 4.62 0 7 0 C7 2.31 7 4.62 7 7 C8.98 7 10.96 7 13 7 C13 9.31 13 11.62 13 14 C11.02 14 9.04 14 7 14 C7.33 17.96 7.66 21.92 8 26 C9.65 26.33 11.3 26.66 13 27 C13 29.31 13 31.62 13 34 C11.58234686 33.96667909 10.16552629 33.89697496 8.75 33.8125 C7.96109375 33.77769531 7.1721875 33.74289062 6.359375 33.70703125 C2.87865143 32.66396674 1.83132934 31.09661143 0 28 C-0.390625 24.44921875 -0.390625 24.44921875 -0.25 20.6875 C-0.21390625 19.43324219 -0.1778125 18.17898438 -0.140625 16.88671875 C-0.07101562 15.45779297 -0.07101562 15.45779297 0 14 C-0.99 14 -1.98 14 -3 14 C-3 11.69 -3 9.38 -3 7 C-2.01 7 -1.02 7 0 7 C0 4.69 0 2.38 0 0 Z " fill="#000000" transform="translate(273,266)"/>
<path d="M0 0 C1.32 0 2.64 0 4 0 C4.33 3.63 4.66 7.26 5 11 C6.32 10.67 7.64 10.34 9 10 C9.33 6.7 9.66 3.4 10 0 C11.65 0 13.3 0 15 0 C15.08132187 2.56314499 15.14064175 5.12368418 15.1875 7.6875 C15.22520508 8.7693457 15.22520508 8.7693457 15.26367188 9.87304688 C15.32585118 14.41213644 15.05224533 17.53000807 12 21 C9.84375 21.59375 9.84375 21.59375 7.5 21.5 C6.7265625 21.4896875 5.953125 21.479375 5.15625 21.46875 C2.55495196 20.90325043 1.60272493 20.09587106 0 18 C0 17.34 0 16.68 0 16 C2.97 16 5.94 16 9 16 C7.88625 15.71125 6.7725 15.4225 5.625 15.125 C2 14 2 14 0 12 C-0.1953125 9.1796875 -0.1953125 9.1796875 -0.125 5.875 C-0.10695312 4.77929688 -0.08890625 3.68359375 -0.0703125 2.5546875 C-0.04710937 1.71164062 -0.02390625 0.86859375 0 0 Z " fill="#000000" transform="translate(161,284)"/>
<path d="M0 0 C1.65 0 3.3 0 5 0 C5.05425226 2.39614126 5.09379027 4.79103853 5.125 7.1875 C5.14175781 7.86103516 5.15851562 8.53457031 5.17578125 9.22851562 C5.21521114 13.27007891 4.93378833 16.41915747 3 20 C0.05122453 21.80202945 -1.67046319 22.01977221 -5.125 21.8125 C-8.17418629 20.95077344 -9.09587777 20.44500333 -11 18 C-11.61329775 14.95008689 -11.50786669 12.06431924 -11 9 C-9.375 6.9375 -9.375 6.9375 -7 6 C-3.75 5.8125 -3.75 5.8125 -1 6 C-0.67 4.02 -0.34 2.04 0 0 Z M-5 10 C-5.66 10.66 -6.32 11.32 -7 12 C-6.67958603 14.60280568 -6.67958603 14.60280568 -6 17 C-4.35 17 -2.7 17 -1 17 C-0.32041397 14.60280568 -0.32041397 14.60280568 0 12 C-0.66 11.34 -1.32 10.68 -2 10 C-2.99 10 -3.98 10 -5 10 Z " fill="#000000" transform="translate(54,278)"/>
<path d="M0 0 C1.32 0 2.64 0 4 0 C4.33 1.98 4.66 3.96 5 6 C6.36125 5.9071875 6.36125 5.9071875 7.75 5.8125 C11.35340306 6.02038864 12.56443829 6.38402631 15 9 C16.08181469 11.93635415 16.09982679 13.58072748 15.375 16.625 C13.62007871 19.65622768 12.23784907 20.67542538 9 22 C5.85069211 21.87402768 3.85128041 21.66113401 1.33862305 19.7097168 C-0.34008324 17.56563872 -0.35033992 16.46597623 -0.29296875 13.76953125 C-0.28330078 12.96708984 -0.27363281 12.16464844 -0.26367188 11.33789062 C-0.23853516 10.50451172 -0.21339844 9.67113281 -0.1875 8.8125 C-0.17396484 7.96751953 -0.16042969 7.12253906 -0.14648438 6.25195312 C-0.11115799 4.16769616 -0.05735139 2.08376723 0 0 Z M6 10 C5.34 10.66 4.68 11.32 4 12 C4.32041397 14.60280568 4.32041397 14.60280568 5 17 C6.65 17 8.3 17 10 17 C10.67958603 14.60280568 10.67958603 14.60280568 11 12 C10.34 11.34 9.68 10.68 9 10 C8.01 10 7.02 10 6 10 Z " fill="#000000" transform="translate(143,278)"/>
<path d="M0 0 C2.31 0 4.62 0 7 0 C7 8.58 7 17.16 7 26 C4.69 26 2.38 26 0 26 C0 17.42 0 8.84 0 0 Z " fill="#000000" transform="translate(233,273)"/>
<path d="M0 0 C2.4375 1.6875 2.4375 1.6875 4 4 C4 5.65 4 7.3 4 9 C0.7 9.33 -2.6 9.66 -6 10 C-2.7 10 0.6 10 4 10 C2 14 2 14 0.25 15.3125 C-2.84694533 16.25878885 -4.90029156 15.85736616 -8 15 C-10.12254465 13.3730495 -10.90157789 12.48945048 -11.43359375 9.84375 C-11.44402315 3.58611056 -11.44402315 3.58611056 -9.4375 0.9375 C-6.05217395 -0.36454848 -3.59663278 -0.4495791 0 0 Z M-5 4 C-5.33 4.66 -5.66 5.32 -6 6 C-4.35 6 -2.7 6 -1 6 C-1.33 5.34 -1.66 4.68 -2 4 C-2.99 4 -3.98 4 -5 4 Z " fill="#000000" transform="translate(112,284)"/>
<path d="M0 0 C1.703125 1.13671875 1.703125 1.13671875 3 3 C3.29296875 5.91796875 3.29296875 5.91796875 3.1875 9.1875 C3.16042969 10.27417969 3.13335937 11.36085938 3.10546875 12.48046875 C3.07066406 13.31191406 3.03585938 14.14335937 3 15 C1.68 15 0.36 15 -1 15 C-1.33 12.03 -1.66 9.06 -2 6 C-3.32 6 -4.64 6 -6 6 C-6.33 8.97 -6.66 11.94 -7 15 C-8.32 15 -9.64 15 -11 15 C-11.10807131 13.06372231 -11.1856225 11.12572244 -11.25 9.1875 C-11.29640625 8.10855469 -11.3428125 7.02960938 -11.390625 5.91796875 C-11 3 -11 3 -9.20703125 1.13671875 C-5.99891809 -0.51560148 -3.54785542 -0.38703877 0 0 Z " fill="#000000" transform="translate(130,284)"/>
<path d="M0 0 C1.65 0 3.3 0 5 0 C5.99 2.64 6.98 5.28 8 8 C8.99 5.36 9.98 2.72 11 0 C12.65 0 14.3 0 16 0 C12.92482916 10.55808656 12.92482916 10.55808656 11 15 C9.02 15 7.04 15 5 15 C4.16013916 13.06532058 3.32831973 11.12714871 2.5 9.1875 C2.0359375 8.10855469 1.571875 7.02960938 1.09375 5.91796875 C0 3 0 3 0 0 Z " fill="#000000" transform="translate(84,284)"/>
<path d="M0 0 C3 2 3 2 3.6875 4.625 C3.790625 5.40875 3.89375 6.1925 4 7 C2.35 7 0.7 7 -1 7 C-1.33 6.34 -1.66 5.68 -2 5 C-2.66 5 -3.32 5 -4 5 C-4.33 8.3 -4.66 11.6 -5 15 C-6.65 15 -8.3 15 -10 15 C-10.05437607 13.41705218 -10.09296271 11.83355744 -10.125 10.25 C-10.14820313 9.36828125 -10.17140625 8.4865625 -10.1953125 7.578125 C-9.98870725 4.85093574 -9.47305841 3.28684592 -8 1 C-5.22899606 -0.38550197 -3.0665294 -0.1877467 0 0 Z " fill="#000000" transform="translate(71,284)"/>
<path d="M0 0 C1.32 0 2.64 0 4 0 C4 6.6 4 13.2 4 20 C2.68 20 1.36 20 0 20 C0 13.4 0 6.8 0 0 Z " fill="#000000" transform="translate(77,279)"/>
<path d="M0 0 C3.63 0 7.26 0 11 0 C11 1.98 11 3.96 11 6 C7.7 6 4.4 6 1 6 C0.67 4.02 0.34 2.04 0 0 Z " fill="#000000" transform="translate(439,293)"/>
<path d="M0 0 C2.31 0 4.62 0 7 0 C7 2.31 7 4.62 7 7 C4.69 7 2.38 7 0 7 C0 4.69 0 2.38 0 0 Z " fill="#000000" transform="translate(233,265)"/>
<path d="" fill="#FFFFFF" transform="translate(0,0)"/>
<path d="" fill="#FFFFFF" transform="translate(0,0)"/>
</svg>
